<?xml version="1.0" standalone="no"?>
<!DOCTYPE svg PUBLIC "-//W3C//DTD SVG 20010904//EN"
 "http://www.w3.org/TR/2001/REC-SVG-20010904/DTD/svg10.dtd">
<svg version="1.0" xmlns="http://www.w3.org/2000/svg"
 width="155.000000pt" height="155.000000pt" viewBox="0 0 155.000000 155.000000"
 preserveAspectRatio="xMidYMid meet">
<metadata>
Created by potrace 1.14, written by Peter Selinger 2001-2017
</metadata>
<g transform="translate(0.000000,155.000000) scale(0.100000,-0.100000)"
fill="#000000" stroke="none">
<path d="M691 1519 c-91 -17 -167 -72 -206 -149 -44 -86 -48 -138 -46 -590 1
-491 0 -454 13 -505 39 -161 148 -244 323 -246 39 0 72 0 75 1 3 1 16 3 29 6
106 19 201 111 231 224 16 58 20 318 6 328 -15 9 -189 10 -202 0 -6 -4 -10
-46 -9 -105 2 -189 -17 -233 -104 -240 -57 -5 -91 12 -113 57 -16 31 -18 77
-18 475 0 423 1 442 21 482 28 56 87 73 150 44 49 -23 61 -57 63 -180 l2 -106
109 0 110 0 0 100 c1 215 -59 334 -195 386 -60 23 -168 31 -239 18z"/>
</g>
</svg>
